<svg width="27" height="24" viewBox="0 0 27 24" fill="none" xmlns="http://www.w3.org/2000/svg">
<path d="M26.1905 6.59542C26.1905 2.95267 23.2595 0 19.6428 0C17.802 0 16.1408 0.767775 14.9507 1.99991L14.9478 1.99815L14.8393 2.12421L14.5319 2.47863L13.0948 4.13672L11.653 2.4713L11.3818 2.15792L11.254 2.01017L11.2491 2.01105C10.0587 0.772465 8.39401 0 6.54769 0C2.9313 0 0 2.95267 0 6.59542C0 7.90846 0.385329 9.12887 1.0419 10.1567H1.03783L1.05791 10.1825C1.25261 10.4847 1.47322 10.7664 1.71245 11.0315L13.0954 23.8095L24.4777 11.0317C24.7176 10.7667 24.9376 10.485 25.1323 10.1828L25.1526 10.157H25.1483C25.8051 9.12887 26.1905 7.90846 26.1905 6.59542ZM20.8235 12.3005H18.6227L18.3686 8.785L16.3925 16.0251L14.995 9.63574L12.5165 14.0518L11.4956 11.0614L9.706 15.5695L8.04826 10.096L7.35415 13.2503H6.21271L5.50753 12.4585H6.72319L7.92778 6.98649L9.80582 13.1861L11.5514 8.79057L12.6917 12.1314L15.32 7.44704L16.4766 12.7318L18.8221 4.14258L19.3529 11.5093H21.5287L20.8235 12.3005Z" fill="#4289E6"/>
</svg>
